# xmcd
#
# Track frame offsets:
#	150
#	18109
#	34543
#	53049
#	72349
#	87857
#	105732
#	123964
#	141949
#	161941
#	180492
#	202652
#	220048
#	242890
#	258827
#	276053
#	296681
#	326253
#
# Disc length: 4818 seconds
#
# Revision: 7
# Processed by: cddbd v1.5.2PL0 Copyright (c) Steve Scherf et al.
# Submitted via: audiograbber 1.83.01
#
DISCID=f712d012
DTITLE=Various Artist - Kuschelrock 17 CD 2
DYEAR=2003
DGENRE=Pop
TTITLE0=Christina Aguilera - Beautiful
TTITLE1=Ronan Keating and Jeanette - We've Got Tonight
TTITLE2=Faith Hill - When The Lights Go Down
TTITLE3=Phil Collins - Can't Stop Loving You
TTITLE4=Savage Garden - Two Beds And A Coffee Machine
TTITLE5=Destiny's Child feat. Beyoncé - My Heart Still Beats
TTITLE6=Laith Al-Deen - I Believe In Love
TTITLE7=Tori Amos - A Sorta Fairytale
TTITLE8=All Saints - Pure Shores
TTITLE9=Ph. D. - I Won't Let You Down
TTITLE10=Bee Gees - Too Much Heaven
TTITLE11=Melanie Thornton - Wonderful Dream (Holidays Are Coming)
TTITLE12=Simply Red - You Make Me Feel Brand New
TTITLE13=Mission Belle - Sweet Lie
TTITLE14=Gareth Gates - Anyone Of Us (Stupid Mistake)
TTITLE15=Mariah Carey - Butterfly
TTITLE16=Sarah Connor - Skin On Skin
TTITLE17=Daten - Müll
EXTD=
EXTT0=
EXTT1=
EXTT2=
EXTT3=
EXTT4=
EXTT5=
EXTT6=
EXTT7=
EXTT8=
EXTT9=
EXTT10=
EXTT11=
EXTT12=
EXTT13=
EXTT14=
EXTT15=
EXTT16=
EXTT17=
PLAYORDER=
